<svg width="214" height="290" viewBox="0 0 214 290" fill="none" xmlns="http://www.w3.org/2000/svg">
<g filter="url(#filter0_d)">
<rect width="206" height="185" transform="matrix(1 0 0 -1 4 282)" fill="#117E36"/>
<rect x="0.5" y="-0.5" width="205" height="184" transform="matrix(1 0 0 -1 4 281)" stroke="black"/>
</g>
<rect x="-0.5" y="0.5" width="47" height="186" transform="matrix(1 0 0 -1 4 283)" fill="#7C7070" stroke="black"/>
<rect x="0.5" y="-0.5" width="45" height="184" transform="matrix(1 0 0 -1 163 281)" fill="#7C7070" stroke="black"/>
<rect x="0.5" y="-0.5" width="74" height="74" transform="matrix(1 0 0 -1 69 199)" fill="#0C6A2C" stroke="black"/>
<rect x="0.5" y="-0.5" width="18" height="124" transform="matrix(1 0 0 -1 97 124)" fill="#0C6A2C" stroke="black"/>
<line y1="-0.5" x2="46" y2="-0.5" transform="matrix(1 0 0 -1 4 260)" stroke="black"/>
<line y1="-0.5" x2="46" y2="-0.5" transform="matrix(1 0 0 -1 4 238)" stroke="black"/>
<line y1="-0.5" x2="46" y2="-0.5" transform="matrix(1 0 0 -1 4 215)" stroke="black"/>
<line y1="-0.5" x2="46" y2="-0.5" transform="matrix(1 0 0 -1 4 195)" stroke="black"/>
<line y1="-0.5" x2="46" y2="-0.5" transform="matrix(1 0 0 -1 4 175)" stroke="black"/>
<line y1="-0.5" x2="46" y2="-0.5" transform="matrix(1 0 0 -1 4 155)" stroke="black"/>
<line y1="-0.5" x2="46" y2="-0.5" transform="matrix(1 0 0 -1 4 135)" stroke="black"/>
<line y1="-0.5" x2="46" y2="-0.5" transform="matrix(1 0 0 -1 4 115)" stroke="black"/>
<line y1="-0.5" x2="46" y2="-0.5" transform="matrix(1 0 0 -1 163 260)" stroke="black"/>
<line y1="-0.5" x2="46" y2="-0.5" transform="matrix(1 0 0 -1 163 238)" stroke="black"/>
<line y1="-0.5" x2="46" y2="-0.5" transform="matrix(1 0 0 -1 163 215)" stroke="black"/>
<line y1="-0.5" x2="46" y2="-0.5" transform="matrix(1 0 0 -1 163 195)" stroke="black"/>
<line y1="-0.5" x2="46" y2="-0.5" transform="matrix(1 0 0 -1 163 175)" stroke="black"/>
<line y1="-0.5" x2="46" y2="-0.5" transform="matrix(1 0 0 -1 163 155)" stroke="black"/>
<line y1="-0.5" x2="46" y2="-0.5" transform="matrix(1 0 0 -1 163 135)" stroke="black"/>
<line y1="-0.5" x2="46" y2="-0.5" transform="matrix(1 0 0 -1 163 115)" stroke="black"/>
<defs>
<filter id="filter0_d" x="0" y="97" width="214" height="193" filterUnits="userSpaceOnUse" color-interpolation-filters="sRGB">
<feFlood flood-opacity="0" result="BackgroundImageFix"/>
<feColorMatrix in="SourceAlpha" type="matrix" values="0 0 0 0 0 0 0 0 0 0 0 0 0 0 0 0 0 0 127 0"/>
<feOffset dy="4"/>
<feGaussianBlur stdDeviation="2"/>
<feColorMatrix type="matrix" values="0 0 0 0 0 0 0 0 0 0 0 0 0 0 0 0 0 0 0.25 0"/>
<feBlend mode="normal" in2="BackgroundImageFix" result="effect1_dropShadow"/>
<feBlend mode="normal" in="SourceGraphic" in2="effect1_dropShadow" result="shape"/>
</filter>
</defs>
</svg>
